<svg width="35" height="25" viewBox="0 0 35 25" fill="none" xmlns="http://www.w3.org/2000/svg">
<g clip-path="url(#clip0_707_72)">
<path d="M34.895 22.6525L34.9496 22.8007L34.8054 22.8684C34.2038 23.1516 33.3575 23.2563 32.3558 23.2563C31.0303 23.2563 29.4357 23.0732 27.7889 22.8834C26.8156 22.7721 25.8293 22.6588 24.9039 22.589C22.828 24.106 20.2692 25 17.5 25C14.7308 25 12.1719 24.1063 10.0961 22.589C9.17105 22.6588 8.1844 22.7721 7.21105 22.8834C5.56395 23.0732 3.9697 23.2563 2.64425 23.2563C1.64255 23.2563 0.7959 23.1516 0.1946 22.8684L0.0504 22.8007L0.105 22.6525C0.3654 21.9441 0.64085 21.1592 0.92295 20.32C0.63875 19.3632 0.36295 18.3932 0.10045 17.4385L0 17.0743L0.34335 17.2355C1.4567 17.7587 3.64595 17.6059 5.94265 17.3575C5.30845 15.8643 4.95845 14.2231 4.95845 12.4986C4.95845 5.59563 10.5731 0 17.5 0C24.4268 0 30.0416 5.59563 30.0416 12.499C30.0416 14.2231 29.6916 15.8646 29.0574 17.3579C31.3541 17.6062 33.5433 17.759 34.6567 17.2358L35 17.0747L34.8996 17.4388C34.6371 18.3935 34.3616 19.3636 34.077 20.3203C34.3591 21.1596 34.6349 21.9444 34.895 22.6528V22.6525Z" fill="#1A4530"/>
</g>
<g clip-path="url(#clip1_707_72)">
<path d="M12.576 7.27295L8.63647 11.7294L17.7272 20.9093L26.8183 11.7294L22.8769 7.27295H12.576Z" fill="#67FAB0"/>
<path d="M15.4779 10.3994L13.7578 12.3454L17.7272 16.3539L21.697 12.3454L19.976 10.3994H15.4779Z" fill="white"/>
</g>
<defs>
<clipPath id="clip0_707_72">
<rect width="35" height="25" fill="white"/>
</clipPath>
<clipPath id="clip1_707_72">
<rect width="18.1818" height="13.6364" fill="white" transform="translate(8.63647 7.27295)"/>
</clipPath>
</defs>
</svg>
